<?xml version="1.0" standalone="no"?>
<!DOCTYPE svg PUBLIC "-//W3C//DTD SVG 20010904//EN"
 "http://www.w3.org/TR/2001/REC-SVG-20010904/DTD/svg10.dtd">
<svg version="1.0" xmlns="http://www.w3.org/2000/svg"
 width="822.000000pt" height="1280.000000pt" viewBox="0 0 822.000000 1280.000000"
 preserveAspectRatio="xMidYMid meet">
<metadata>
Created by potrace 1.15, written by Peter Selinger 2001-2017
</metadata>
<g transform="translate(0.000000,1280.000000) scale(0.100000,-0.100000)"
fill="#000000" stroke="none">
<path d="M0 6630 l0 -6170 343 -2 342 -3 3 -227 2 -228 455 0 455 0 0 230 0
230 2510 0 2510 0 0 -230 0 -230 455 0 455 0 2 228 3 227 343 3 342 2 0 6170
0 6170 -4110 0 -4110 0 0 -6170z m7535 4570 l0 -910 -3437 0 -3438 0 0 910 0
910 3438 0 3437 0 0 -910z m-4 -1374 c2 -2 3 -414 1 -915 l-2 -911 -3435 0
-3435 0 0 915 0 915 3433 0 c1889 0 3436 -2 3438 -4z m1 -3197 c2 -501 1 -913
-1 -915 -2 -2 -1549 -4 -3438 -4 l-3433 0 0 915 0 915 3435 0 3435 0 2 -911z
m-1 -1373 c2 -2 3 -414 1 -915 l-2 -911 -3435 0 -3435 0 0 915 0 915 3433 0
c1889 0 3436 -2 3438 -4z m-1 -3201 l0 -915 -3435 0 -3435 0 0 915 0 915 3435
0 3435 0 0 -915z"/>
<path d="M2470 11210 l0 -880 180 0 180 0 0 880 0 880 -180 0 -180 0 0 -880z"/>
<path d="M690 12045 c0 -3 0 -389 0 -857 l0 -853 225 -3 225 -2 0 860 0 860
-225 0 c-124 0 -225 -2 -225 -5z"/>
<path d="M1690 11190 l0 -860 160 0 160 0 0 860 0 860 -160 0 -160 0 0 -860z"/>
<path d="M2056 12041 c-3 -5 -5 -391 -3 -857 l2 -849 183 -3 182 -2 0 860 0
860 -179 0 c-99 0 -182 -4 -185 -9z"/>
<path d="M4088 11924 c-93 -46 -168 -87 -168 -91 0 -4 170 -350 377 -769 l376
-762 169 84 c92 46 170 84 173 84 3 0 5 -31 5 -70 l0 -70 915 0 915 0 0 230 0
230 -915 0 -915 0 -1 -152 -1 -153 -378 763 c-208 419 -380 762 -382 761 -2 0
-78 -38 -170 -85z"/>
<path d="M3422 11143 l3 -808 228 -3 227 -2 0 810 0 810 -230 0 -230 0 2 -807z"/>
<path d="M1190 11130 l0 -800 225 0 225 0 0 800 0 800 -225 0 -225 0 0 -800z"/>
<path d="M2880 11110 l0 -780 250 0 250 0 0 780 0 780 -250 0 -250 0 0 -780z"/>
<path d="M5390 11060 l0 -230 683 2 682 3 3 228 2 227 -685 0 -685 0 0 -230z"/>
<path d="M3110 8910 l0 -881 148 3 147 3 3 878 2 877 -150 0 -150 0 0 -880z"/>
<path d="M5290 8910 l0 -880 183 2 182 3 3 878 2 877 -185 0 -185 0 0 -880z"/>
<path d="M1740 8890 l0 -860 230 0 230 0 0 860 0 860 -230 0 -230 0 0 -860z"/>
<path d="M2750 8890 l0 -861 158 3 157 3 0 855 0 855 -157 3 -158 3 0 -861z"/>
<path d="M3450 8890 l0 -860 183 2 182 3 0 855 0 855 -182 3 -183 2 0 -860z"/>
<path d="M3860 8890 l0 -860 160 0 160 0 0 860 0 860 -160 0 -160 0 0 -860z"/>
<path d="M5700 8890 l0 -860 183 2 182 3 3 858 2 857 -185 0 -185 0 0 -860z"/>
<path d="M6115 9738 c-3 -7 -4 -393 -3 -858 l3 -845 158 -3 157 -3 0 861 0
860 -155 0 c-115 0 -157 -3 -160 -12z"/>
<path d="M6980 8890 l0 -860 228 2 227 3 0 855 0 855 -227 3 -228 2 0 -860z"/>
<path d="M1240 8845 l0 -815 228 2 227 3 0 810 0 810 -227 3 -228 2 0 -815z"/>
<path d="M4247 9654 c-4 -4 -7 -371 -7 -816 l0 -808 228 2 227 3 0 810 0 810
-221 3 c-121 1 -223 -1 -227 -4z"/>
<path d="M2242 8833 l3 -798 228 -3 227 -2 0 800 0 800 -230 0 -230 0 2 -797z"/>
<path d="M6480 8830 l0 -800 225 2 c124 2 225 6 225 11 0 4 0 363 0 797 l0
790 -225 0 -225 0 0 -800z"/>
<path d="M690 8810 l0 -780 250 0 250 0 0 780 0 780 -250 0 -250 0 0 -780z"/>
<path d="M4740 8810 l0 -780 253 2 252 3 0 775 0 775 -252 3 -253 2 0 -780z"/>
<path d="M4870 6630 l0 -880 150 0 150 0 -2 878 -3 877 -147 3 -148 3 0 -881z"/>
<path d="M5620 6605 l0 -855 160 0 160 0 0 855 0 855 -160 0 -160 0 0 -855z"/>
<path d="M6500 6605 l0 -855 230 0 230 0 0 855 0 855 -230 0 -230 0 0 -855z"/>
<path d="M3991 7408 c-10 -24 -166 -369 -346 -768 -179 -399 -329 -730 -331
-736 -4 -9 320 -164 344 -164 4 0 50 93 102 208 51 114 207 461 347 771 140
310 253 567 251 573 -3 9 -323 158 -340 158 -5 0 -17 -19 -27 -42z"/>
<path d="M4471 7408 c-10 -24 -166 -369 -346 -768 -180 -399 -329 -730 -331
-736 -4 -9 319 -164 343 -164 11 0 696 1516 697 1543 1 14 -37 35 -163 92 -90
41 -167 75 -172 75 -6 0 -18 -19 -28 -42z"/>
<path d="M6000 6560 l0 -810 230 0 230 0 0 810 0 810 -230 0 -230 0 0 -810z"/>
<path d="M7010 6550 l0 -800 225 0 225 0 0 800 0 800 -225 0 -225 0 0 -800z"/>
<path d="M5210 6480 l0 -730 185 0 185 0 0 730 0 730 -185 0 -185 0 0 -730z"/>
<path d="M3161 6555 c-199 -350 -362 -640 -364 -646 -3 -16 262 -164 274 -152
12 12 730 1275 727 1278 -6 5 -270 155 -273 155 -1 0 -165 -286 -364 -635z"/>
<path d="M820 6445 l0 -135 915 0 915 0 0 135 0 135 -915 0 -915 0 0 -135z"/>
<path d="M688 6195 l-3 -65 1028 0 1027 0 0 65 0 65 -1024 0 -1024 0 -4 -65z"/>
<path d="M688 6014 c-1 -36 -1 -68 1 -70 2 -2 465 -4 1028 -4 l1023 0 0 70 0
70 -1024 0 -1024 0 -4 -66z"/>
<path d="M689 5896 c-2 -2 -2 -34 -1 -70 l4 -66 1024 0 1024 0 0 70 0 70
-1023 0 c-563 0 -1026 -2 -1028 -4z"/>
<path d="M3140 4340 l0 -880 150 0 150 0 0 880 0 880 -150 0 -150 0 0 -880z"/>
<path d="M6560 4340 l0 -880 180 0 180 0 0 880 0 880 -180 0 -180 0 0 -880z"/>
<path d="M1230 4320 l0 -860 250 0 250 0 -2 858 -3 857 -247 3 -248 2 0 -860z"/>
<path d="M3895 5168 c-3 -7 -4 -393 -3 -858 l3 -845 158 -3 157 -3 0 861 0
860 -155 0 c-115 0 -157 -3 -160 -12z"/>
<path d="M4780 4320 l0 -860 225 0 225 0 0 860 0 860 -225 0 -225 0 0 -860z"/>
<path d="M6970 4285 l0 -825 250 0 250 0 0 825 0 825 -250 0 -250 0 0 -825z"/>
<path d="M722 4273 l3 -808 228 -3 227 -2 0 810 0 810 -230 0 -230 0 2 -807z"/>
<path d="M4250 4270 l0 -810 240 0 240 0 0 810 0 810 -240 0 -240 0 0 -810z"/>
<path d="M2140 4260 l0 -800 230 0 230 0 0 800 0 800 -230 0 -230 0 0 -800z"/>
<path d="M2640 4260 l0 -800 230 0 230 0 0 800 0 800 -230 0 -230 0 0 -800z"/>
<path d="M5380 4990 c-84 -36 -134 -63 -134 -71 2 -16 600 -1438 608 -1446 6
-6 253 93 270 108 7 6 -556 1367 -598 1445 -11 21 -13 20 -146 -36z"/>
<path d="M1775 4938 c-3 -7 -4 -341 -3 -743 l3 -730 158 -3 157 -3 0 746 0
745 -155 0 c-115 0 -157 -3 -160 -12z"/>
<path d="M6150 4205 l0 -745 180 0 180 0 0 745 0 745 -180 0 -180 0 0 -745z"/>
<path d="M3480 4190 l0 -730 185 0 185 0 0 730 0 730 -185 0 -185 0 0 -730z"/>
<path d="M690 2035 l0 -855 160 0 160 0 0 855 0 855 -160 0 -160 0 0 -855z"/>
<path d="M3450 2035 l0 -854 181 -3 c99 -2 183 -1 185 1 2 2 4 388 4 858 l0
853 -185 0 -185 0 0 -855z"/>
<path d="M3860 2037 c0 -470 2 -856 4 -858 2 -2 74 -3 160 -1 l156 3 0 854 0
855 -160 0 -160 0 0 -853z"/>
<path d="M5700 2035 l0 -855 185 0 185 0 0 855 0 855 -185 0 -185 0 0 -855z"/>
<path d="M6110 2037 c0 -470 2 -856 4 -858 2 -2 74 -3 160 -1 l156 3 0 854 0
855 -160 0 -160 0 0 -853z"/>
<path d="M6980 2000 l0 -820 230 0 230 0 0 820 0 820 -230 0 -230 0 0 -820z"/>
<path d="M2060 1990 l0 -810 230 0 230 0 0 810 0 810 -230 0 -230 0 0 -810z"/>
<path d="M4220 1990 l0 -809 236 -3 c130 -2 238 -1 240 1 2 2 4 368 4 813 l0
808 -240 0 -240 0 0 -810z"/>
<path d="M5290 1991 l0 -810 181 -3 c115 -2 183 1 185 7 2 6 3 370 2 810 l-3
800 -182 3 -183 2 0 -809z"/>
<path d="M1060 1980 l0 -800 225 0 225 0 0 800 0 800 -225 0 -225 0 0 -800z"/>
<path d="M6480 1980 l0 -799 225 -3 225 -3 0 803 0 802 -225 0 -225 0 0 -800z"/>
<path d="M2562 1955 l3 -776 250 0 250 0 3 776 2 775 -255 0 -255 0 2 -775z"/>
<path d="M3110 1946 l0 -765 146 -3 c91 -2 148 1 150 7 2 6 3 350 2 765 l-3
755 -147 3 -148 3 0 -765z"/>
<path d="M1560 1865 l0 -685 230 0 230 0 -2 683 -3 682 -227 3 -228 2 0 -685z"/>
<path d="M4740 1842 c0 -362 2 -661 4 -663 2 -2 117 -3 255 -1 l251 3 -2 657
-3 657 -252 3 -253 2 0 -658z"/>
</g>
</svg>
