<?xml version="1.0" standalone="no"?>
<!DOCTYPE svg PUBLIC "-//W3C//DTD SVG 20010904//EN"
 "http://www.w3.org/TR/2001/REC-SVG-20010904/DTD/svg10.dtd">
<svg version="1.0" xmlns="http://www.w3.org/2000/svg"
 width="1280.000000pt" height="874.000000pt" viewBox="0 0 1280.000000 874.000000"
 preserveAspectRatio="xMidYMid meet">
<metadata>
Created by potrace 1.15, written by Peter Selinger 2001-2017
</metadata>
<g transform="translate(0.000000,874.000000) scale(0.100000,-0.100000)"
fill="#000000" stroke="none">
<path d="M4795 8699 c-40 -57 -76 -81 -127 -88 -38 -5 -44 -11 -66 -54 -33
-63 -123 -145 -204 -185 -36 -17 -70 -32 -77 -32 -6 0 -23 18 -37 40 -15 22
-35 40 -44 40 -10 0 -42 -11 -72 -25 -54 -25 -131 -32 -173 -16 -14 6 -28 2
-48 -15 -15 -13 -65 -44 -110 -68 -45 -25 -94 -56 -109 -68 -31 -27 -82 -159
-124 -323 -26 -100 -29 -126 -29 -275 0 -145 3 -172 22 -223 l22 -58 -27 -10
c-40 -16 -152 -39 -190 -39 -26 0 -74 -28 -225 -133 -106 -73 -257 -178 -337
-232 -80 -54 -205 -141 -277 -193 l-133 -94 -27 20 c-156 109 -443 53 -577
-111 -65 -81 -87 -143 -87 -246 l0 -66 -82 -41 c-45 -23 -137 -69 -204 -104
-111 -57 -129 -63 -195 -67 l-73 -4 49 26 c139 75 226 244 226 440 0 197 -78
350 -208 408 -33 15 -120 38 -202 53 -80 14 -164 34 -188 43 -130 51 -395 -69
-582 -266 -47 -49 -99 -100 -116 -113 -25 -20 -41 -54 -87 -181 -66 -184 -82
-264 -74 -372 7 -83 15 -110 145 -462 135 -368 134 -365 161 -365 17 0 40 -16
71 -50 41 -44 56 -53 121 -71 41 -11 130 -38 199 -60 232 -74 274 -82 415 -83
72 -1 148 2 170 6 l40 7 34 -62 c54 -101 82 -137 125 -162 162 -92 455 -31
600 125 l56 61 0 94 0 93 48 18 c126 46 436 171 558 224 l136 61 57 -22 c118
-45 273 -23 353 49 60 54 78 98 78 187 l0 75 140 70 c160 80 260 122 348 145
60 15 61 15 96 -9 21 -14 58 -26 92 -31 102 -12 104 -15 104 -92 0 -61 6 -79
49 -168 71 -147 118 -210 502 -665 201 -239 281 -342 404 -520 58 -84 138
-184 190 -238 49 -50 96 -105 105 -122 8 -16 42 -51 75 -78 33 -26 71 -64 84
-85 16 -24 54 -54 114 -89 49 -29 117 -78 151 -108 33 -30 79 -61 101 -69 66
-22 128 -75 191 -162 102 -142 138 -183 196 -221 43 -28 59 -46 68 -75 7 -21
38 -69 69 -108 59 -73 101 -147 101 -176 0 -9 -7 -30 -15 -45 -39 -75 -5 -177
105 -313 l59 -74 -50 -55 c-28 -30 -67 -80 -88 -111 -47 -69 -281 -485 -338
-601 -119 -240 -92 -421 97 -645 82 -98 285 -317 485 -525 209 -217 361 -383
424 -463 48 -61 93 -97 121 -97 13 0 13 66 -1 92 -14 26 -58 63 -122 104 -31
19 -59 48 -76 77 -14 25 -50 73 -78 107 -29 33 -56 73 -59 88 -4 15 -55 77
-118 142 -61 63 -173 183 -249 267 -113 124 -145 154 -179 165 -32 10 -55 28
-95 78 -63 78 -105 161 -101 198 2 17 16 35 42 52 32 22 45 42 72 111 78 193
218 443 414 739 55 84 98 155 96 158 -13 13 -69 -26 -105 -72 -38 -50 -140
-223 -260 -445 -35 -63 -72 -127 -84 -142 -52 -66 -42 -28 32 119 92 181 183
335 320 542 125 189 125 188 36 95 -131 -137 -235 -305 -440 -716 -64 -127
-118 -229 -120 -227 -2 2 7 44 21 93 25 90 59 160 88 185 10 8 16 29 16 56 0
38 13 64 104 206 519 814 958 1329 1451 1704 156 118 259 187 226 151 -14 -16
-21 -32 -17 -42 5 -14 13 -11 54 18 26 19 85 55 132 79 77 39 88 48 113 96 20
37 34 52 49 52 43 0 103 -48 216 -174 162 -180 211 -242 242 -309 16 -33 57
-88 99 -132 39 -41 115 -141 168 -222 54 -81 103 -149 110 -151 7 -2 20 6 30
17 25 30 37 26 66 -18 15 -22 59 -79 100 -128 40 -48 92 -115 115 -149 43 -64
69 -86 114 -98 23 -5 28 -3 34 18 7 31 -12 100 -42 147 -13 21 -80 98 -150
171 -126 133 -320 349 -489 548 -166 195 -312 355 -392 431 -89 85 -185 159
-206 159 -8 0 -31 -14 -52 -30 -44 -35 -54 -34 -75 6 -39 75 -104 165 -164
224 l-66 64 -56 -12 c-31 -6 -61 -9 -65 -6 -5 3 -9 67 -9 143 0 310 -59 656
-156 918 -80 217 -219 466 -332 594 -41 46 -41 47 -41 126 0 93 -18 149 -91
280 -27 49 -56 106 -65 127 l-17 39 74 -6 c40 -3 201 -13 358 -22 739 -40 947
-98 1188 -329 157 -151 220 -273 257 -496 9 -52 24 -105 33 -117 242 -314 229
-300 278 -307 26 -3 64 -11 85 -16 l39 -11 36 -117 c62 -198 89 -235 245 -335
47 -30 116 -81 155 -114 135 -116 196 -147 419 -217 70 -22 166 -62 231 -97
99 -52 121 -60 215 -74 57 -8 154 -26 216 -40 140 -31 231 -32 293 -4 25 12
41 23 35 25 -5 1 -80 13 -165 24 -464 65 -856 178 -1125 325 -74 40 -108 68
-214 177 -128 131 -171 191 -171 237 0 57 16 56 60 -5 69 -95 239 -257 333
-319 97 -63 210 -117 306 -147 39 -12 72 -29 83 -44 11 -13 42 -30 71 -39 29
-8 59 -25 68 -36 13 -18 19 -19 37 -10 33 18 79 13 178 -19 86 -27 98 -29 144
-18 43 10 56 9 87 -6 20 -10 86 -29 147 -42 118 -26 224 -58 268 -80 26 -14
28 -13 43 16 9 17 13 40 10 50 -9 28 -62 70 -122 96 -29 13 -53 25 -53 28 0 2
34 61 74 131 74 126 117 219 131 282 6 29 4 33 -15 33 -35 0 -66 -46 -95 -138
-15 -48 -45 -116 -67 -151 -22 -36 -51 -86 -63 -112 -28 -62 -43 -79 -66 -79
-16 0 -18 5 -13 28 11 43 29 82 73 157 23 39 50 100 61 136 11 37 27 72 36 80
53 44 252 451 335 686 27 79 56 139 87 182 70 99 127 251 94 251 -8 0 -293
-570 -340 -680 -59 -136 -338 -699 -359 -725 -28 -33 -81 -70 -89 -63 -15 16
94 247 148 312 17 21 53 92 79 157 26 65 113 252 193 416 151 312 200 423 247
562 l29 85 -31 -30 c-45 -43 -74 -97 -124 -233 -68 -184 -157 -376 -388 -839
-172 -345 -216 -426 -238 -438 -16 -8 -30 -14 -33 -14 -16 0 69 196 208 475
185 374 284 584 368 785 67 160 139 352 134 358 -6 5 -71 -79 -99 -128 -14
-25 -51 -117 -82 -205 -109 -309 -334 -792 -423 -908 -46 -59 -53 -75 -82
-172 -11 -38 -26 -77 -33 -86 -15 -20 -66 -53 -72 -47 -2 2 28 71 66 153 109
229 300 646 359 780 96 218 250 589 246 592 -5 5 -56 -61 -84 -109 -13 -20
-54 -112 -92 -205 -38 -92 -96 -228 -130 -301 -33 -73 -76 -177 -94 -232 -18
-55 -42 -110 -53 -122 -12 -13 -34 -54 -49 -93 -15 -38 -54 -107 -86 -151 -44
-62 -66 -105 -89 -175 -20 -63 -40 -104 -59 -123 -16 -17 -31 -28 -33 -25 -6
5 93 230 374 857 127 282 229 516 225 519 -10 10 -55 -26 -81 -65 -13 -20 -45
-92 -70 -160 -51 -140 -69 -178 -98 -209 -36 -40 -35 -25 4 50 20 39 54 128
74 197 83 282 105 346 143 400 41 61 389 781 448 929 36 92 89 181 112 189 33
11 -301 -734 -472 -1051 -51 -94 -59 -117 -63 -175 l-4 -67 19 40 c10 22 116
238 234 480 118 242 226 469 240 505 14 36 37 98 53 138 26 71 87 152 113 152
21 0 -67 -221 -121 -307 -15 -24 -45 -96 -66 -161 -21 -64 -89 -223 -151 -352
-96 -199 -113 -243 -114 -285 -1 -65 19 -67 54 -5 l25 45 3 -32 c2 -18 7 -33
11 -33 13 0 528 1029 541 1080 17 66 35 90 69 90 l29 0 -65 -142 c-114 -250
-207 -439 -295 -598 -154 -278 -238 -460 -214 -460 25 0 65 57 103 145 21 50
62 122 90 160 64 88 77 116 98 195 20 76 35 108 85 175 53 71 165 318 185 409
9 42 26 87 37 101 22 28 63 33 93 11 18 -13 18 -15 1 -60 -10 -26 -29 -60 -42
-75 -13 -16 -37 -66 -54 -112 -41 -110 -119 -265 -224 -442 -109 -184 -178
-314 -216 -406 -16 -41 -30 -76 -30 -79 0 -4 18 12 41 33 49 48 97 131 156
273 25 59 58 122 74 140 16 18 49 72 73 120 48 94 71 130 79 122 9 -9 -44
-129 -121 -273 -84 -158 -108 -217 -88 -217 21 0 45 33 63 86 9 29 36 71 64
102 59 64 101 138 125 217 10 33 33 78 50 100 48 61 101 163 118 229 9 33 14
62 11 64 -11 11 -53 -10 -65 -33 -7 -14 -22 -25 -32 -25 -16 0 -13 11 26 85
25 47 48 101 52 121 4 25 15 39 36 50 43 23 68 51 68 79 l0 25 -87 -5 c-560
-35 -1029 -107 -1564 -241 -213 -53 -227 -58 -259 -93 -17 -20 -55 -39 -120
-61 -379 -128 -660 -393 -876 -824 -36 -72 -68 -133 -70 -135 -12 -12 12 106
38 184 52 159 151 309 299 451 413 396 1066 644 1959 743 271 31 477 44 571
38 92 -6 100 -4 118 31 23 44 9 54 -68 46 l-70 -6 -6 35 c-4 19 -2 67 4 105
15 94 13 230 -3 267 -11 26 -10 34 3 55 13 19 16 52 16 153 l0 129 -53 -5
c-29 -3 -67 -14 -84 -25 l-30 -19 31 -11 c17 -6 31 -15 31 -20 0 -5 -9 -44
-20 -87 -17 -67 -20 -111 -20 -317 0 -131 4 -238 8 -238 21 0 32 30 33 90 1
88 17 128 18 44 1 -33 8 -83 16 -110 8 -27 15 -55 15 -61 0 -17 -116 -18 -126
-1 -4 6 -7 58 -8 114 0 96 -2 103 -21 106 -19 3 -20 11 -25 178 -4 149 -8 180
-24 210 l-20 35 -6 -38 c-10 -58 -30 -71 -30 -20 0 23 -4 45 -10 48 -6 4 -10
-11 -10 -39 0 -24 -5 -57 -11 -73 -11 -28 -11 -28 -22 -5 -14 31 -33 27 -41
-9 -3 -17 -6 -106 -6 -196 0 -147 2 -164 16 -159 9 3 17 6 19 6 2 0 7 20 11
45 9 65 20 56 16 -14 -4 -58 9 -101 28 -101 6 0 10 18 10 40 0 38 12 52 25 30
3 -5 19 -10 35 -10 31 0 47 -14 29 -25 -7 -5 -8 -28 -4 -69 l7 -63 -144 -18
c-165 -20 -217 -16 -219 18 -2 41 2 73 16 123 l13 49 1 -41 c1 -47 26 -78 42
-53 10 16 13 74 10 174 -2 39 5 114 14 167 14 82 14 102 3 125 -7 16 -20 28
-28 28 -12 0 -16 -17 -18 -77 -2 -52 -7 -80 -17 -88 -13 -11 -15 2 -15 94 0
58 -4 106 -8 106 -5 0 -18 -19 -28 -42 -17 -39 -19 -64 -16 -268 3 -246 -4
-304 -45 -344 -20 -20 -29 -23 -43 -16 -28 15 -83 12 -162 -10 -40 -10 -158
-31 -263 -45 -104 -14 -226 -34 -270 -45 -137 -32 -397 -130 -551 -208 -33
-17 -97 -43 -142 -57 -45 -15 -109 -45 -143 -67 -74 -50 -318 -284 -412 -396
-55 -66 -156 -158 -163 -149 -7 9 -13 218 -7 214 17 -11 34 10 40 49 7 48 20
66 43 59 26 -8 31 18 16 88 -7 35 -10 72 -6 82 7 19 7 19 19 -3 23 -43 34 -25
27 44 l-7 65 61 27 62 26 -6 40 c-4 28 1 58 15 96 11 30 25 71 31 90 15 45 13
44 35 32 16 -10 19 -3 33 68 l15 78 175 132 c152 116 185 136 256 160 45 16
156 58 246 93 179 72 322 113 426 123 40 3 85 15 112 29 64 33 139 47 184 34
20 -5 36 -12 36 -15 0 -3 -15 -24 -34 -45 -48 -56 -93 -146 -101 -200 -8 -55
12 -108 52 -134 35 -23 53 -13 54 32 1 25 4 14 10 -31 8 -69 27 -105 49 -91 9
6 11 67 9 244 l-4 236 40 13 c22 8 63 16 91 19 l52 6 7 -59 c3 -33 1 -135 -5
-229 -11 -162 -8 -282 9 -329 8 -19 10 -17 22 19 9 28 13 114 15 280 3 294 1
267 19 291 15 17 15 -10 9 -295 -5 -262 -4 -313 7 -309 31 10 38 70 36 313 -2
271 5 319 51 336 15 6 83 17 151 24 68 8 125 16 128 19 3 3 -10 14 -28 25 -51
31 -114 31 -244 0 -44 -10 -129 -24 -190 -30 -108 -10 -582 -97 -760 -139
-240 -55 -486 -170 -782 -362 l-122 -80 -124 -166 c-155 -209 -179 -245 -243
-360 -36 -64 -53 -88 -58 -77 -13 34 -4 73 34 155 22 47 40 91 40 98 0 6 6 12
13 12 8 0 22 9 32 20 10 11 23 20 29 21 6 0 24 26 40 57 70 140 81 155 160
224 369 320 883 526 1616 647 287 47 535 72 695 69 124 -2 144 0 173 17 17 11
32 23 32 29 0 14 -506 -16 -808 -49 -74 -8 -186 -15 -249 -15 -147 0 -299 -29
-363 -70 -37 -24 -70 -32 -189 -50 -165 -25 -288 -60 -346 -100 -22 -15 -96
-60 -165 -100 -69 -39 -143 -87 -165 -105 -22 -17 -59 -42 -82 -54 -24 -12
-43 -28 -43 -37 0 -28 -40 -93 -73 -118 -55 -42 -111 -49 -297 -35 -110 7
-213 8 -310 3 -178 -11 -429 -2 -588 21 -91 13 -125 14 -141 6 -16 -9 -28 -8
-53 5 -43 23 -110 20 -255 -12 -16 -3 -23 0 -23 11 0 11 -11 15 -44 15 -24 0
-46 5 -48 10 -2 7 -16 6 -40 -4 -20 -9 -84 -20 -143 -26 -74 -7 -118 -16 -141
-29 -30 -18 -33 -18 -38 -3 -7 26 -24 158 -31 242 -3 41 -8 88 -11 103 l-6 29
31 -17 c56 -28 71 7 21 48 -16 14 -38 28 -47 31 -10 3 -29 27 -42 52 -14 25
-58 76 -98 112 -41 37 -83 81 -94 98 -13 21 -30 34 -52 38 -17 3 -95 38 -172
77 -77 39 -158 73 -180 75 -32 4 -86 -11 -260 -70 -200 -68 -222 -74 -240 -60
-82 59 -128 86 -180 104 -80 28 -244 49 -385 50 -63 1 -162 5 -220 9 l-105 8
-62 -49 c-33 -26 -75 -64 -91 -83 l-31 -34 -74 34 c-209 96 -447 147 -750 160
l-132 6 -30 -42z m350 -43 c11 -7 97 -30 192 -50 180 -38 251 -59 321 -95 48
-25 88 -27 99 -6 7 11 42 -33 139 -173 72 -103 142 -205 156 -228 31 -49 110
-204 104 -204 -3 0 -20 26 -40 58 -40 66 -70 97 -85 87 -21 -12 -10 -46 28
-88 47 -51 61 -78 61 -112 0 -22 -3 -26 -17 -20 -43 18 -103 16 -181 -4 -45
-12 -99 -21 -120 -21 -37 0 -38 1 -75 75 -20 41 -40 93 -43 115 -4 22 -10 40
-15 40 -13 0 -49 -52 -49 -72 0 -51 56 -136 135 -201 39 -33 48 -36 67 -26 11
6 82 20 157 30 83 12 149 27 173 39 l38 20 6 -24 c3 -14 -2 -42 -14 -69 -19
-44 -20 -44 -82 -50 -35 -4 -108 -7 -164 -7 -164 1 -241 37 -434 208 -137 120
-318 272 -326 272 -2 0 -1 -14 4 -32 6 -17 43 -65 87 -110 68 -70 75 -81 59
-90 -29 -16 -84 0 -204 59 -82 41 -129 58 -166 61 -50 4 -54 7 -81 50 -82 129
-199 217 -323 243 l-57 12 89 83 c134 125 248 197 366 230 62 17 171 17 195 0z
m1280 -42 c214 -2 217 -3 413 -177 208 -184 264 -255 303 -386 12 -42 12 -45
-11 -63 l-24 -19 32 -62 c34 -65 38 -82 23 -91 -5 -4 -69 -15 -143 -26 l-133
-21 -22 26 c-12 14 -32 56 -43 93 l-21 67 39 37 c45 41 95 58 182 61 65 1 77
14 38 41 -59 42 -220 -1 -282 -75 -30 -35 -30 -31 -10 -172 l7 -48 -51 19
c-71 27 -120 69 -214 181 -80 95 -127 140 -180 174 l-28 17 0 -28 c0 -31 18
-58 89 -137 l46 -50 -41 -3 c-52 -4 -139 29 -193 71 -51 41 -110 119 -193 256
-34 57 -82 129 -105 159 -44 57 -44 65 -6 95 13 10 23 26 23 36 0 15 12 19 68
24 37 4 88 7 115 7 34 0 52 5 64 20 17 19 17 19 52 -3 33 -20 49 -22 206 -23z
m1068 -104 c40 -22 122 -65 182 -94 61 -29 120 -64 132 -77 54 -60 97 -183
108 -311 l6 -73 -17 33 c-36 69 -142 132 -223 132 -44 0 -99 -20 -131 -46 -29
-25 -30 -28 -30 -115 0 -49 -3 -89 -8 -89 -4 0 -24 11 -45 25 -29 21 -48 49
-91 138 -49 102 -95 167 -117 167 -22 0 -6 -67 30 -128 21 -37 42 -79 45 -94
6 -26 5 -26 -25 -18 -75 22 -103 62 -180 255 -27 68 -43 90 -101 146 -66 64
-85 99 -52 99 8 0 77 20 152 45 163 53 172 54 240 50 39 -3 71 -14 125 -45z
m-3022 -239 c102 -21 199 -46 215 -54 57 -30 81 -68 160 -262 16 -41 46 -89
71 -115 42 -46 67 -93 56 -104 -4 -3 -18 -6 -33 -6 -37 0 -131 -26 -229 -62
-81 -30 -84 -31 -93 -12 -6 10 -39 47 -73 81 l-63 62 13 43 c8 24 16 55 19 69
11 53 135 71 216 31 39 -19 40 -19 40 0 0 78 -117 114 -220 67 -84 -38 -120
-93 -120 -185 0 -56 2 -59 48 -103 51 -50 180 -131 208 -131 10 0 41 14 71 30
33 19 67 30 91 30 l38 0 2 -59 2 -58 -37 -7 c-60 -9 -177 -7 -235 5 -111 24
-190 69 -436 252 -107 80 -126 89 -115 60 23 -63 94 -138 201 -211 64 -44 69
-50 50 -56 -52 -14 -114 -4 -240 39 -73 24 -153 47 -178 51 l-45 7 20 -23 c30
-34 99 -65 220 -98 61 -17 121 -35 135 -40 l25 -10 -30 -12 c-35 -14 -196 -49
-378 -83 -151 -28 -157 -26 -157 55 0 44 -2 50 -19 45 -17 -4 -20 3 -26 57 -9
89 11 226 51 346 38 115 122 266 176 316 110 104 264 116 599 45z m3313 -258
c68 -48 134 -209 95 -234 -8 -5 -65 -9 -127 -9 l-112 0 -15 33 c-12 26 -42
149 -47 192 -1 6 19 20 43 33 56 29 107 25 163 -15z m-1474 -102 c0 -23 -41
-102 -50 -96 -14 9 -13 78 2 93 14 14 48 16 48 3z m-1224 -47 c-4 -11 -23 -36
-42 -58 -28 -29 -38 -35 -45 -25 -15 24 -11 33 33 74 43 40 66 44 54 9z m2348
-48 l59 -33 -22 -22 c-22 -22 -61 -27 -118 -15 -24 5 -33 14 -42 44 -17 56
-15 60 27 60 23 0 58 -12 96 -34z m-1040 -30 c-14 -42 -58 -95 -69 -84 -14 14
53 128 75 128 5 0 2 -20 -6 -44z m176 22 c0 -27 -29 -73 -59 -94 -20 -14 -21
-14 -21 11 0 46 40 103 73 105 4 0 7 -10 7 -22z m-1250 -18 c133 -16 164 -26
201 -62 39 -39 52 -69 96 -222 19 -65 48 -146 66 -180 29 -57 31 -68 31 -166
1 -58 -3 -182 -8 -276 -11 -200 -5 -226 90 -436 31 -68 80 -196 109 -285 61
-183 78 -213 231 -409 77 -97 109 -146 113 -172 8 -49 71 -95 220 -163 77 -35
126 -63 146 -86 17 -18 40 -33 52 -33 44 0 71 -20 137 -100 68 -82 115 -120
149 -120 17 0 16 5 -8 48 -14 26 -53 82 -87 125 -46 58 -67 77 -85 77 -33 0
-77 24 -148 80 -69 55 -99 71 -175 94 -30 10 -62 23 -70 29 -26 20 -65 79 -90
137 -14 30 -50 83 -81 117 -69 75 -144 195 -183 292 -31 76 -29 96 5 65 19
-17 21 -17 30 -2 9 16 16 14 77 -18 l67 -36 140 5 c110 4 177 13 310 42 269
57 381 75 492 77 57 1 103 6 103 10 0 5 -11 20 -25 33 -19 20 -34 25 -77 25
-29 0 -69 -5 -88 -11 -19 -7 -96 -13 -170 -14 -132 -1 -138 -2 -280 -49 -147
-48 -275 -70 -317 -55 -16 6 -23 17 -23 34 0 22 -4 26 -22 23 -17 -2 -24 -11
-26 -30 -4 -32 -14 -35 -33 -12 -19 23 -14 72 15 137 14 32 26 62 26 67 0 22
-21 8 -45 -30 -14 -22 -31 -40 -39 -40 -10 0 -6 20 15 79 66 188 140 279 251
309 53 14 40 -9 -31 -57 -31 -22 -63 -46 -70 -55 -12 -14 -10 -16 11 -16 23 0
61 22 162 95 53 39 88 48 65 18 -7 -10 -24 -31 -38 -47 l-26 -29 33 7 c19 3
73 24 120 47 l87 41 180 3 c99 1 214 6 257 10 l76 8 22 -44 c13 -24 49 -85 82
-136 68 -106 98 -182 98 -253 l0 -50 -62 0 c-35 0 -70 -5 -78 -10 -28 -18 18
-49 85 -58 l59 -7 117 -173 c64 -95 137 -214 163 -265 77 -154 168 -447 217
-702 23 -119 22 -161 -6 -316 l-17 -96 26 -75 c33 -95 33 -110 -4 -131 -58
-35 -267 -191 -380 -285 -63 -53 -182 -163 -264 -246 -83 -83 -171 -166 -196
-186 -47 -36 -90 -81 -174 -185 -27 -33 -62 -71 -77 -85 -16 -14 -54 -72 -85
-130 -67 -124 -100 -174 -146 -217 l-33 -32 -87 137 c-140 223 -207 311 -318
422 -75 75 -130 119 -190 154 -161 94 -237 146 -248 171 -8 17 -20 25 -36 25
-66 0 -220 168 -388 425 -20 30 -50 59 -75 73 -28 15 -51 40 -71 75 -17 29
-63 90 -103 137 -90 107 -172 231 -193 293 -20 60 -21 73 -1 57 8 -7 15 -24
15 -39 0 -36 11 -71 21 -71 5 0 9 9 9 19 0 11 4 22 9 25 15 9 38 -27 55 -86
17 -58 29 -71 40 -43 9 24 35 17 42 -10 4 -14 25 -38 52 -56 54 -37 66 -28 57
44 -10 81 -21 93 -56 61 -17 -16 -19 -15 -29 10 -5 15 -10 33 -10 41 0 8 -5
26 -10 40 -9 23 -13 25 -25 15 -8 -7 -15 -25 -15 -41 0 -58 -30 -20 -45 58 -5
27 -15 36 -58 56 -60 29 -103 66 -142 125 -32 48 -51 53 -67 17 -18 -40 -42
-31 -56 20 -10 37 -20 49 -65 78 -147 94 -227 268 -227 494 0 110 -9 128 -44
81 -16 -22 -17 -21 -11 27 3 28 8 67 11 87 5 30 2 39 -14 49 -16 10 -18 18
-11 38 5 14 13 70 18 125 9 84 15 106 43 153 56 93 132 147 268 191 63 20 205
52 233 52 30 0 142 -168 124 -186 -2 -3 -32 14 -65 37 -47 33 -72 43 -114 47
l-53 4 33 -34 c18 -19 70 -55 116 -81 91 -51 162 -118 151 -145 -19 -49 -17
-73 5 -97 26 -27 26 -34 -1 -437 -17 -254 -1 -372 61 -451 18 -22 25 -26 31
-15 14 21 10 72 -7 119 -22 59 -22 247 0 439 20 172 23 359 6 450 -6 36 -43
160 -83 275 l-72 210 -1 277 0 276 24 -9 c32 -12 72 -11 72 2 0 26 -73 309
-81 314 -22 14 -32 -45 -22 -123 5 -42 7 -85 5 -96 -5 -17 -6 -16 -18 5 -14
26 -18 122 -8 205 6 50 8 52 43 58 20 3 74 24 121 47 100 48 167 59 223 36 33
-14 37 -14 37 -1 0 9 -13 29 -29 45 -25 25 -37 29 -83 29 -29 0 -85 -9 -123
-19 -38 -11 -71 -18 -72 -17 -2 2 7 15 19 31 25 32 74 56 103 51 11 -3 63 -10
115 -16z m3955 -69 c390 -4 670 -11 683 -17 21 -9 22 -11 8 -23 -24 -20 -1027
-16 -1200 5 -154 18 -241 18 -364 -1 -63 -9 -264 -18 -577 -25 -466 -11 -887
-26 -1011 -36 -55 -5 -64 -3 -90 19 l-29 25 43 11 c43 12 115 5 173 -18 19 -7
51 -6 110 4 166 28 282 35 769 45 272 6 551 15 620 19 69 5 143 7 165 5 22 -3
337 -8 700 -13z m-2625 -56 c0 -2 -18 -14 -41 -26 -56 -28 -169 -38 -439 -40
-124 0 -276 -4 -338 -7 -61 -4 -112 -4 -112 0 0 20 51 28 177 28 88 1 200 9
308 24 152 21 445 35 445 21z m3270 -61 c0 -21 -18 -53 -51 -92 -16 -18 -29
-38 -29 -45 0 -10 -182 -13 -897 -14 -494 -1 -1188 -7 -1543 -12 -355 -6 -862
-11 -1127 -11 l-483 0 -32 29 -33 30 55 25 c76 35 174 44 240 22 47 -16 58
-16 128 -2 156 31 268 37 787 46 292 5 566 12 610 15 126 11 906 22 1673 23
631 2 702 0 702 -14z m2444 -179 c14 -38 2 -78 -59 -195 -54 -104 -305 -593
-399 -775 -14 -27 -25 -47 -26 -44 0 3 16 55 36 115 36 108 87 226 222 520 56
121 128 308 158 412 5 17 59 -10 68 -33z m-7470 -84 c10 -60 21 -185 26 -278
9 -175 8 -182 -33 -196 -6 -2 -1 -30 13 -71 28 -85 28 -142 1 -169 l-20 -21
-11 28 c-5 15 -10 55 -10 89 0 68 -15 137 -30 137 -18 0 -23 -52 -11 -120 13
-82 14 -140 3 -140 -20 0 -42 41 -57 105 -24 104 -53 150 -69 109 -10 -27 -7
-59 13 -116 18 -51 18 -102 1 -113 -9 -5 -31 47 -55 128 -17 60 -44 97 -70 97
-23 0 -18 -35 15 -97 18 -34 30 -71 30 -94 0 -73 -35 -37 -77 79 -27 74 -56
112 -86 112 -28 0 -17 -46 29 -114 24 -37 38 -71 42 -102 7 -62 -5 -54 -72 51
-68 105 -116 142 -116 91 0 -14 18 -44 43 -72 24 -27 49 -59 55 -71 15 -26 16
-73 2 -73 -5 0 -44 41 -86 90 -42 50 -78 90 -79 90 -2 0 -10 3 -19 6 -12 5
-16 0 -16 -21 0 -20 16 -43 59 -86 58 -58 91 -113 76 -127 -7 -7 -37 25 -97
107 -39 53 -95 81 -105 55 -6 -17 13 -37 94 -101 27 -22 27 -22 6 -23 -13 0
-40 15 -60 34 -51 45 -82 61 -96 47 -10 -10 26 -50 92 -99 17 -13 31 -33 31
-44 0 -18 -3 -17 -37 10 -44 34 -112 72 -131 72 -26 0 18 -59 66 -86 89 -52
121 -85 122 -128 0 -15 -7 -12 -42 18 -73 62 -171 123 -228 142 -38 13 -83 18
-145 18 -184 -1 -348 -72 -695 -302 -523 -344 -912 -544 -1332 -683 -414 -137
-927 -172 -1229 -83 -227 67 -415 260 -490 504 -28 89 -33 269 -10 360 30 125
117 265 266 430 55 61 80 80 134 103 165 70 397 104 536 78 176 -32 309 -156
344 -319 34 -163 -16 -334 -127 -433 -79 -69 -126 -90 -213 -96 -147 -11 -265
43 -333 150 -45 72 -59 131 -54 225 5 88 38 162 94 212 59 52 272 63 358 18
71 -36 106 -100 106 -193 0 -88 -30 -141 -99 -177 -66 -35 -167 -40 -194 -10
-42 46 -60 147 -37 206 9 23 15 26 63 26 100 0 131 -57 57 -106 -48 -32 -47
-48 4 -52 47 -4 72 17 87 72 13 50 -1 108 -34 131 -25 17 -113 20 -169 5 -73
-21 -137 -102 -138 -176 0 -76 70 -162 159 -192 43 -15 133 -15 182 0 51 15
114 69 141 122 34 65 31 173 -9 257 -73 157 -187 220 -339 189 -160 -33 -278
-149 -329 -324 -13 -44 -16 -83 -13 -155 6 -115 27 -169 94 -241 80 -85 182
-120 354 -120 177 0 364 54 611 177 85 43 164 76 176 75 11 -1 56 -19 100 -39
43 -20 98 -41 123 -48 39 -10 45 -15 51 -45 22 -106 172 -129 261 -40 33 33
38 44 38 84 0 26 -5 56 -11 67 -9 18 -3 29 49 82 78 82 97 133 97 257 l0 95
39 35 c105 95 341 253 559 374 l67 38 0 -56 c0 -73 16 -109 90 -207 33 -44 62
-92 66 -107 8 -41 18 -55 54 -79 46 -32 114 -30 225 6 50 16 104 32 122 36 46
9 99 73 119 141 30 105 -5 247 -91 370 -42 59 -45 60 -109 74 -36 7 -66 17
-66 20 0 23 45 42 116 49 44 5 166 34 272 65 282 82 427 102 743 105 l187 1
16 -109z m7112 66 c16 -42 -211 -540 -400 -882 -131 -236 -162 -309 -188 -443
-22 -120 -48 -192 -185 -525 -88 -215 -321 -694 -372 -765 -24 -35 -65 -66
-98 -76 -20 -6 -23 -4 -23 21 1 40 39 126 93 211 75 116 273 520 300 613 33
110 49 146 86 193 17 21 31 49 31 61 0 26 34 125 88 260 53 130 59 155 38 155
-17 0 -45 -50 -66 -115 -7 -22 -59 -150 -116 -285 -77 -181 -130 -289 -204
-415 -69 -117 -118 -215 -157 -315 -67 -171 -140 -320 -156 -320 -20 1 -47 26
-47 45 0 9 8 29 19 43 10 15 38 65 61 112 23 47 67 120 96 162 77 108 111 183
199 433 93 263 152 392 239 525 80 121 85 132 151 289 98 232 373 842 418 924
25 45 48 81 53 80 24 -5 8 -51 -90 -251 -57 -119 -147 -320 -199 -447 -52
-126 -111 -265 -130 -307 -28 -61 -32 -78 -21 -78 31 0 53 21 70 67 9 27 50
122 89 213 40 91 97 221 126 290 29 69 71 155 92 193 21 37 55 111 74 165 37
104 50 129 85 162 25 23 37 25 44 7z m-2266 -22 c33 -17 32 -21 -14 -113 l-25
-49 -71 -12 c-39 -7 -87 -10 -107 -6 -26 5 -40 2 -54 -11 -24 -22 -24 -40 1
-71 11 -14 20 -36 20 -49 0 -33 18 -75 38 -90 9 -7 45 -18 78 -24 l62 -12 -14
-26 c-26 -50 -12 -126 30 -161 10 -8 16 -29 16 -53 0 -53 24 -106 54 -120 23
-10 26 -17 26 -60 0 -27 -13 -89 -30 -140 -16 -50 -30 -112 -30 -138 l0 -47
-49 -6 c-28 -3 -73 -16 -100 -28 -50 -21 -51 -22 -51 -65 0 -52 16 -92 42 -99
26 -9 23 -21 -12 -47 -32 -23 -47 -62 -71 -183 -11 -57 -43 -135 -55 -135 -20
0 39 220 77 288 21 38 27 57 21 70 -5 9 -12 33 -16 52 -9 51 -34 84 -52 69
-17 -14 -17 -47 1 -123 13 -57 9 -96 -14 -110 -6 -4 -8 13 -4 47 5 46 2 57
-19 82 -31 36 -53 26 -43 -19 3 -17 9 -51 12 -76 l5 -44 -36 32 c-20 18 -46
32 -56 32 -17 0 -20 7 -20 47 0 30 6 53 17 66 17 18 17 19 -2 33 -11 8 -25 12
-32 10 -26 -10 -12 34 19 63 25 24 30 33 21 42 -10 10 -21 8 -52 -5 -58 -27
-70 -15 -21 22 24 17 48 33 54 36 7 3 6 8 -4 15 -18 12 -58 4 -83 -17 -9 -8
-20 -12 -23 -9 -12 12 5 36 38 53 69 35 91 74 42 74 -16 0 -45 -15 -70 -35
-47 -39 -71 -46 -55 -17 6 11 35 36 66 58 51 35 55 39 39 51 -25 18 -25 18
-90 -32 -62 -49 -74 -53 -74 -30 0 15 15 32 79 86 20 17 31 36 31 53 0 39 -19
32 -75 -27 -55 -60 -85 -77 -85 -50 0 10 20 38 45 63 32 32 48 58 52 83 4 28
2 37 -9 37 -17 0 -67 -52 -97 -102 -13 -21 -27 -38 -32 -38 -20 0 -7 39 27 79
24 27 37 53 38 74 1 29 -2 32 -29 35 -16 2 -33 8 -36 14 -11 17 -47 -10 -75
-55 -30 -49 -51 -67 -76 -67 -32 0 -22 49 20 99 21 25 44 56 50 68 16 30 15
63 -2 63 -26 0 -57 -35 -89 -100 -31 -62 -59 -92 -73 -78 -4 4 10 42 30 84 33
70 48 144 28 144 -21 0 -63 -61 -86 -124 -30 -84 -42 -98 -62 -72 -17 24 -12
42 32 123 35 64 43 103 21 103 -26 0 -55 -40 -76 -102 -12 -35 -26 -70 -31
-78 -9 -13 -11 -13 -20 0 -14 22 -12 44 10 100 26 66 26 100 1 100 -28 0 -41
-21 -51 -83 -12 -77 -25 -97 -59 -97 -28 0 -29 1 -20 39 5 22 17 62 27 88 33
83 35 103 13 103 -31 0 -58 -44 -71 -117 -18 -101 -41 -127 -94 -107 -25 10
-19 43 23 126 41 82 46 127 10 108 -30 -17 -47 -49 -70 -137 -13 -48 -27 -82
-33 -80 -19 6 -18 46 3 117 21 70 28 140 13 140 -5 0 -16 -8 -25 -18 -15 -17
-26 -57 -42 -163 -3 -19 -12 -44 -19 -55 -14 -18 -15 -18 -22 11 -4 16 -2 66
4 111 8 56 9 90 2 108 -5 14 -12 26 -14 26 -14 0 -36 -65 -42 -123 -7 -73 -16
-93 -34 -82 -10 6 -11 33 -6 111 5 86 4 104 -7 104 -31 0 -42 -32 -45 -139 -2
-58 -8 -110 -12 -114 -15 -16 -49 13 -55 46 -4 18 1 75 10 126 9 51 14 95 11
98 -11 11 -48 -11 -57 -34 -5 -13 -9 -59 -10 -101 -1 -103 -9 -126 -41 -130
-14 -2 -33 4 -43 14 -15 16 -17 30 -11 111 6 77 5 93 -7 93 -30 0 -40 -30 -41
-118 -1 -72 -4 -87 -17 -90 -9 -2 -24 5 -34 14 -15 15 -16 29 -10 99 8 99 1
108 -77 103 -42 -2 -52 -6 -48 -18 8 -25 3 -171 -7 -181 -5 -5 -18 -3 -31 7
-26 18 -27 44 -7 128 8 33 12 63 9 68 -12 19 -34 6 -42 -24 -10 -40 -24 -39
-35 2 -4 16 -14 30 -22 30 -27 0 -37 -38 -30 -114 8 -79 -5 -107 -54 -121
l-24 -7 7 111 c6 97 4 110 -9 105 -25 -10 -35 -39 -35 -104 0 -65 -12 -100
-35 -100 -24 0 -27 18 -14 96 15 95 5 124 -44 124 -18 0 -38 5 -43 10 -19 19
-38 -19 -42 -84 -3 -51 0 -65 18 -88 12 -16 28 -28 36 -28 9 0 14 -7 12 -17
-3 -14 -14 -18 -53 -18 l-50 1 0 94 c0 73 -4 101 -17 119 l-17 24 -5 -24 c-3
-13 -7 -59 -10 -102 -5 -86 -23 -120 -60 -115 -19 3 -21 12 -26 115 -3 61 -9
115 -13 120 -5 4 -15 -1 -24 -12 -12 -16 -14 -37 -9 -99 6 -85 -3 -116 -34
-116 -30 0 -40 32 -37 118 2 86 -3 102 -28 82 -11 -9 -15 -33 -15 -95 0 -87
-11 -110 -47 -103 -32 6 -43 47 -36 131 6 73 5 77 -14 77 -40 0 -48 -24 -34
-106 8 -49 9 -79 2 -91 -9 -16 -11 -15 -20 10 -6 16 -11 47 -11 70 0 55 -18
119 -32 115 -28 -10 -32 -36 -15 -106 9 -38 17 -75 17 -80 0 -19 -31 -42 -57
-42 l-26 0 9 73 c13 119 11 141 -10 145 -25 5 -38 -10 -45 -55 -4 -24 -12 -39
-23 -41 -14 -3 -15 2 -8 35 10 41 6 49 -24 55 -26 4 -34 -30 -25 -102 8 -56
-3 -99 -28 -108 -18 -5 -33 40 -33 98 0 64 -16 108 -33 91 -8 -8 -11 -40 -9
-95 2 -67 0 -87 -13 -100 -43 -42 -59 -9 -57 117 1 78 0 88 -15 85 -33 -6 -44
-47 -37 -135 7 -85 3 -94 -30 -70 -14 10 -20 33 -25 85 -7 78 -12 88 -37 78
-14 -5 -15 -17 -9 -85 8 -89 -4 -112 -37 -71 -13 17 -18 39 -18 90 0 75 -16
104 -45 80 -19 -16 -19 -51 0 -114 8 -27 15 -55 15 -61 0 -16 -80 -29 -120
-20 -29 6 -29 7 -32 88 l-3 82 -30 0 c-27 0 -29 3 -25 25 6 31 7 304 1 382
l-5 57 1065 6 c1770 10 2787 20 2795 28 13 12 84 8 114 -8z m1896 -28 c3 -8
-77 -193 -177 -413 -299 -657 -698 -1543 -741 -1644 -86 -203 -102 -239 -160
-353 -78 -153 -128 -189 -128 -93 0 35 7 50 44 94 52 61 79 116 148 307 57
156 117 299 153 360 71 123 155 307 155 339 0 71 53 191 194 438 76 134 343
689 403 838 27 68 76 139 96 140 4 0 10 -6 13 -13z m105 3 c25 -14 24 -36 -7
-90 -14 -25 -40 -83 -59 -130 -55 -143 -121 -292 -224 -508 -54 -114 -111
-241 -126 -282 -40 -108 -66 -155 -131 -240 -68 -89 -101 -159 -199 -414 -95
-248 -116 -296 -261 -576 -67 -129 -134 -263 -149 -298 -23 -52 -30 -60 -38
-46 -21 36 2 107 69 217 77 126 170 319 242 502 28 72 72 184 97 250 26 66
123 271 216 455 92 184 185 378 207 430 22 52 78 187 125 300 123 298 189 440
205 440 7 0 22 -5 33 -10z m-264 -132 c-17 -46 -82 -186 -145 -312 -117 -238
-177 -372 -207 -466 -10 -30 -24 -59 -32 -63 -7 -4 -29 -31 -49 -60 -45 -65
-40 -49 48 173 39 96 79 204 90 240 14 45 31 77 58 105 32 33 45 60 75 155 49
158 82 225 132 271 23 21 47 39 52 39 5 0 -5 -37 -22 -82z m-87 21 c0 -15 -21
-60 -48 -100 -55 -86 -58 -93 -167 -344 -333 -765 -528 -1185 -552 -1185 -15
0 13 105 49 180 48 103 78 185 78 217 0 13 17 42 40 67 28 31 50 70 74 137 88
243 216 542 358 840 100 208 167 283 168 188z m-147 -21 c-36 -93 -155 -374
-247 -582 -53 -120 -117 -276 -143 -345 -48 -129 -93 -206 -139 -236 -23 -15
-25 -21 -19 -60 5 -36 1 -53 -23 -102 -16 -32 -69 -150 -117 -263 -134 -315
-238 -511 -333 -629 -28 -34 -63 -22 -103 35 -30 45 -31 47 -18 87 8 23 42 89
78 147 71 116 131 236 131 260 0 9 17 39 39 67 41 55 111 217 111 258 0 16 13
39 35 61 29 29 35 42 35 77 0 32 13 65 56 142 62 112 81 155 149 334 26 69 99
228 161 354 63 127 128 268 146 314 25 66 36 83 52 84 12 0 44 9 71 19 28 10
60 19 72 19 23 1 23 1 6 -41z m-7729 -21 c48 -1 86 -33 86 -71 0 -36 -26 -34
-67 6 -27 26 -35 29 -47 18 -14 -11 -14 -15 5 -41 11 -15 33 -38 49 -49 28
-20 31 -20 60 -5 20 11 33 26 37 46 l6 30 24 -23 c35 -32 70 -96 89 -157 18
-61 13 -74 -23 -60 -18 6 -28 6 -33 0 -3 -6 -14 6 -25 25 -22 42 -67 68 -101
60 -21 -6 -23 -10 -14 -26 6 -11 29 -29 50 -40 43 -22 46 -32 40 -125 -2 -41
-34 -115 -49 -115 -11 0 -87 56 -96 70 -16 25 -100 70 -132 70 -27 0 -34 5
-39 25 -5 20 2 36 30 72 20 25 36 55 36 65 0 21 18 23 45 4 34 -23 65 -29 65
-12 0 21 -74 82 -126 103 -24 10 -44 24 -44 31 0 7 12 35 26 63 l25 51 42 -7
c23 -3 60 -7 81 -8z m7465 -99 c-36 -90 -261 -539 -267 -534 -2 3 6 40 18 83
26 97 86 222 139 293 23 30 41 62 41 70 0 9 7 40 16 69 16 54 44 91 68 91 12
0 8 -16 -15 -72z m-82 51 c17 -17 -22 -115 -92 -234 -65 -110 -99 -190 -110
-255 -7 -44 -78 -185 -380 -755 -72 -137 -169 -322 -214 -410 -45 -88 -98
-182 -119 -210 -34 -46 -37 -48 -40 -26 -2 13 6 51 18 85 23 63 40 93 152 278
38 61 75 137 87 177 17 55 29 77 56 98 19 16 35 35 35 44 0 38 35 111 80 167
37 46 61 91 94 179 60 160 108 276 173 413 65 138 235 460 243 460 3 0 11 -5
17 -11z m1671 -48 c-5 -14 -19 -42 -31 -61 -33 -53 -34 -13 -2 57 19 42 28 54
35 44 5 -8 4 -25 -2 -40z m-1818 -84 c-13 -34 -51 -109 -85 -167 -81 -137 -95
-165 -215 -435 -122 -276 -129 -288 -298 -595 -74 -135 -157 -290 -184 -345
-44 -92 -48 -96 -42 -55 11 80 60 186 161 352 161 263 197 336 383 768 49 113
103 236 120 275 l31 70 -26 -25 c-39 -37 -86 -119 -150 -265 -90 -203 -233
-493 -343 -694 -55 -101 -120 -228 -143 -282 -23 -55 -58 -116 -76 -137 l-34
-37 7 45 c11 76 41 141 125 274 106 168 185 322 314 606 183 403 312 650 340
650 19 0 19 -29 0 -54 -17 -22 -19 -36 -6 -36 5 0 37 43 72 96 51 75 65 91 67
73 2 -12 -6 -49 -18 -82z m-257 -132 c-19 -35 -104 -212 -189 -392 -86 -181
-178 -371 -206 -423 -64 -120 -189 -332 -194 -328 -13 14 45 149 222 511 245
499 367 719 393 703 5 -3 -7 -35 -26 -71z m-2827 4 c9 -16 6 -101 -4 -111 -6
-6 -16 -2 -26 8 -13 13 -16 26 -10 58 3 22 8 44 11 49 6 10 21 9 29 -4z m2659
-155 c-64 -104 -302 -579 -416 -827 -44 -97 -55 -114 -60 -95 -13 46 5 105 67
224 35 66 92 188 128 270 100 233 122 280 181 379 54 93 140 184 157 167 5 -5
-20 -57 -57 -118z m-6847 -35 c12 -5 27 -21 33 -36 9 -24 7 -30 -11 -45 -33
-27 -60 -23 -60 7 0 15 -11 36 -25 49 -48 45 -20 56 63 25z m2732 -34 c0 -14
-32 -65 -67 -108 -32 -38 -39 -53 -35 -78 3 -21 -7 -56 -34 -114 -22 -47 -43
-84 -48 -85 -14 0 4 73 30 117 28 49 29 53 8 53 -40 0 27 156 84 195 34 23 62
32 62 20z m-3870 -38 c50 -26 60 -43 31 -52 -10 -3 -48 -27 -83 -53 -110 -82
-112 -83 -171 -76 -34 4 -82 0 -131 -10 -99 -20 -96 -21 -96 8 0 14 -4 28 -10
31 -18 11 -10 22 43 57 167 111 320 146 417 95z m3600 -33 c-34 -98 -67 -117
-56 -32 8 57 28 88 57 88 17 0 17 -3 -1 -56z m116 -26 c-20 -29 -36 -58 -36
-65 0 -18 -19 -16 -26 2 -7 16 12 48 60 107 44 53 45 21 2 -44z m3996 -135
c-57 -131 -116 -246 -120 -233 -6 18 17 118 35 155 29 57 107 168 110 158 2
-6 -9 -42 -25 -80z m609 -33 c-19 -55 -85 -205 -148 -332 -63 -128 -144 -298
-180 -378 -75 -168 -251 -512 -267 -522 -6 -4 -19 -8 -28 -8 -44 0 -2 134 93
300 40 69 104 190 142 270 75 155 123 237 167 285 16 18 36 60 49 101 12 41
39 98 63 134 55 79 54 77 66 130 6 25 20 67 32 94 16 38 23 47 33 37 9 -9 4
-34 -22 -111z m-4704 23 c4 -52 1 -77 -11 -101 -25 -48 -36 -39 -36 27 0 45
-4 60 -16 65 -14 5 -13 11 10 40 14 19 26 40 26 47 0 10 3 10 11 2 6 -6 14
-43 16 -80z m-2066 -16 c-9 -9 -171 -28 -180 -21 -7 6 52 25 103 32 60 9 93 5
77 -11z m-1582 -37 c24 0 24 0 5 -21 -16 -17 -16 -22 -4 -29 8 -6 30 -10 48
-10 24 0 32 -4 32 -18 0 -35 -21 -42 -121 -42 -89 0 -100 -2 -126 -24 -16 -14
-38 -43 -48 -65 -16 -36 -22 -41 -51 -41 -29 0 -138 35 -156 49 -7 6 3 97 17
158 8 34 38 45 162 54 63 5 129 16 146 23 30 13 33 12 52 -10 12 -13 31 -24
44 -24z m1858 -47 c22 -15 57 -77 51 -94 -2 -5 -27 13 -56 41 -71 68 -69 100
5 53z m-314 -31 c6 -33 12 -42 29 -42 21 0 21 0 -2 -25 -24 -25 -73 -39 -190
-51 -36 -3 -73 -11 -83 -16 -26 -14 -29 -6 -21 49 l7 48 12 -34 c22 -65 59
-49 69 29 7 56 23 66 33 20 3 -16 9 -30 12 -30 16 0 31 26 31 51 0 15 5 31 10
34 6 3 10 -5 10 -19 0 -13 3 -31 6 -40 11 -29 24 -17 24 22 0 43 7 54 29 50 9
-2 19 -20 24 -46z m-1571 -172 c-3 -47 -9 -80 -18 -90 -12 -12 -14 -8 -14 34
0 37 -6 57 -25 82 -35 46 -32 56 18 52 l42 -3 -3 -75z m1738 38 c-1 -23 -28
-139 -34 -145 -7 -7 -26 41 -26 67 0 10 -5 31 -11 47 -14 37 -29 14 -29 -45 0
-50 -14 -82 -35 -82 -18 0 -18 7 -3 63 6 24 8 52 4 63 -7 18 -8 18 -20 2 -17
-24 -26 -23 -26 2 0 28 31 39 113 39 47 1 67 -3 67 -11z m92 -5 c28 -17 29
-20 23 -68 -3 -27 -11 -68 -16 -90 -9 -34 -12 -37 -21 -21 -6 10 -8 43 -6 72
5 56 -11 72 -22 24 -3 -13 -11 -25 -18 -28 -9 -3 -12 15 -12 62 0 60 2 66 21
66 11 0 34 -8 51 -17z m-778 -36 c19 -53 -29 -145 -55 -106 -19 28 10 144 34
136 6 -2 16 -15 21 -30z m6450 -42 c-11 -35 -45 -85 -55 -79 -5 3 -9 36 -9 75
l0 69 35 -22 c26 -18 33 -28 29 -43z m-109 -19 c4 -19 -2 -57 -16 -101 -27
-84 -37 -63 -19 36 7 37 10 79 6 95 -6 24 -5 26 8 15 9 -7 18 -27 21 -45z
m-6435 -39 c0 -41 -14 -77 -30 -77 -13 0 -13 28 2 89 13 57 28 51 28 -12z
m6570 -4 c0 -39 -29 -117 -56 -150 l-23 -28 -1 25 c0 28 61 180 73 180 4 0 7
-12 7 -27z m1050 -118 c-6 -22 -42 -98 -80 -170 -37 -71 -116 -247 -175 -390
-59 -143 -121 -288 -137 -321 -27 -56 -111 -154 -122 -143 -8 7 70 204 118
300 25 49 65 117 88 150 72 102 74 107 88 166 7 32 57 145 116 261 57 112 105
212 105 221 1 9 4 5 6 -9 3 -13 0 -42 -7 -65z m-1160 -4 c0 -35 -27 -101 -40
-101 -21 0 -21 29 -1 69 12 22 21 47 21 56 0 9 5 13 10 10 6 -3 10 -19 10 -34z
m-6590 -93 c0 -6 -19 -29 -42 -51 -34 -32 -50 -40 -75 -38 -43 3 -64 -21 -97
-107 -15 -39 -39 -82 -54 -97 l-27 -27 -13 33 c-21 51 2 159 33 159 23 0 92
37 150 81 69 52 125 73 125 47z m-440 -123 c0 -45 -4 -56 -21 -65 -32 -18 -49
-5 -49 37 0 66 9 83 41 83 28 0 29 -1 29 -55z m640 -73 c0 -42 -42 -94 -101
-126 -62 -35 -178 -47 -229 -26 l-31 13 32 33 c18 18 81 59 140 89 59 31 115
65 125 77 19 20 19 20 41 -7 13 -14 23 -38 23 -53z m-938 29 c-18 -15 -56 -40
-85 -54 -63 -30 -228 -89 -234 -83 -7 7 130 84 205 115 137 58 161 62 114 22z
m176 -27 c3 -48 2 -50 -31 -62 -18 -7 -42 -12 -53 -12 -17 1 -17 2 -3 10 15 9
24 26 49 93 15 43 35 28 38 -29z m202 -70 c0 -75 -16 -83 -38 -18 -15 43 -4
84 23 84 12 0 15 -14 15 -66z m6960 10 c29 -66 27 -79 -12 -78 -30 1 -33 4
-31 30 2 35 14 94 19 94 2 0 12 -21 24 -46z m882 -22 c-5 -15 -28 -56 -52 -92
-52 -79 -48 -47 7 73 29 61 39 74 46 62 5 -10 5 -27 -1 -43z m-7920 -14 c-4
-66 -23 -108 -47 -108 -11 0 -15 12 -15 42 l0 41 -26 -24 c-25 -23 -26 -23
-39 -5 -24 33 11 74 85 99 25 9 45 16 46 17 0 0 -2 -28 -4 -62z m-282 -9 c0
-10 -37 -34 -66 -43 -18 -6 -22 -2 -26 23 -4 30 -4 30 44 29 26 0 48 -4 48 -9z
m110 -98 c0 -77 11 -65 -104 -108 -47 -17 -56 -8 -49 47 3 22 1 40 -6 44 -19
12 -12 23 29 43 47 24 60 15 60 -39 0 -31 4 -38 19 -38 23 0 31 19 31 76 0 24
5 44 10 44 6 0 10 -30 10 -69z m7290 18 c35 -68 26 -149 -15 -149 -14 0 -39
117 -30 144 3 9 7 23 10 31 7 23 13 19 35 -26z m-7847 -32 c3 -8 2 -29 -2 -48
l-7 -33 -17 24 c-17 24 -19 24 -32 6 -7 -10 -18 -15 -24 -11 -22 13 -10 34 24
45 19 6 35 16 35 21 0 14 17 11 23 -4z m-926 -93 c18 -12 28 -11 64 1 46 17
97 19 117 6 8 -5 12 -23 10 -47 l-3 -38 -118 -4 c-129 -4 -214 9 -249 38 -21
17 -22 20 -7 35 34 34 137 39 186 9z m481 0 c46 -13 17 -84 -34 -84 -19 0 -24
5 -24 26 0 27 16 64 28 64 4 0 17 -3 30 -6z m-985 -17 c33 -15 64 -44 54 -53
-8 -8 -100 39 -105 54 -5 16 11 15 51 -1z m417 -103 c184 -15 353 -15 555 -1
26 2 30 -2 33 -27 2 -16 -1 -33 -7 -39 -8 -8 -11 -5 -11 11 0 26 -7 28 -31 6
-17 -15 -21 -15 -57 4 -35 18 -42 19 -60 6 -13 -9 -23 -31 -28 -59 -6 -41 -9
-45 -28 -39 -11 4 -80 6 -153 5 -73 -1 -152 4 -177 10 -42 10 -45 13 -48 47
-4 49 -35 58 -44 13 l-7 -31 -36 21 c-20 12 -48 21 -62 21 -21 -2 -28 3 -33
23 -4 15 -13 25 -25 25 -10 0 -24 7 -31 15 -11 13 -8 14 16 10 16 -3 121 -12
234 -21z m830 -28 c0 -61 -6 -66 -76 -66 l-44 0 0 51 c0 59 22 65 30 8 3 -22
11 -35 23 -37 14 -3 17 4 17 47 0 48 2 51 25 51 24 0 25 -3 25 -54z m8630 -4
c0 -15 -25 -72 -55 -127 -43 -79 -55 -94 -55 -72 0 16 20 67 45 114 25 47 45
94 45 105 0 10 5 16 10 13 6 -3 10 -18 10 -33z m-8394 -97 c18 -43 18 -55 -1
-55 -14 0 -35 -56 -35 -93 0 -10 -4 -15 -10 -12 -5 3 -10 14 -10 24 0 10 -6
23 -13 29 -21 18 -42 -4 -42 -44 0 -21 -6 -39 -12 -41 -8 -3 -13 5 -13 20 0
48 -9 58 -38 44 -15 -8 -35 -12 -44 -10 -15 4 -18 -3 -18 -39 0 -24 -4 -49 -9
-57 -13 -21 -31 -4 -31 30 0 16 -2 29 -4 29 -2 0 -11 3 -20 6 -12 5 -16 -1
-16 -24 0 -45 -17 -48 -38 -7 -16 32 -20 35 -31 21 -19 -23 -89 -20 -129 4
-41 25 -60 63 -43 84 22 27 113 54 257 76 78 12 165 32 195 44 63 26 84 21
105 -29z m9010 -137 c-8 -41 -76 -188 -87 -188 -15 0 -20 39 -8 62 7 13 29 47
50 77 22 30 39 60 39 68 0 7 3 13 6 13 4 0 4 -15 0 -32z m-2831 -552 c14 -9
45 -47 69 -84 41 -64 96 -122 117 -122 5 0 9 -4 9 -8 0 -13 -160 -129 -388
-281 -338 -226 -423 -301 -580 -509 -99 -131 -155 -192 -175 -192 -22 0 -63
-52 -93 -115 -20 -43 -55 -88 -125 -159 -54 -54 -102 -95 -107 -92 -15 9 -46
-33 -92 -122 -54 -105 -67 -113 -116 -70 -51 45 -74 99 -74 178 0 75 11 119
52 213 30 70 115 217 125 217 16 0 -13 -74 -56 -145 -48 -78 -78 -151 -68
-162 6 -6 32 34 110 167 30 52 62 104 71 115 l15 20 1 -20 c0 -26 -46 -123
-94 -198 -37 -58 -38 -65 -14 -99 9 -13 10 -32 1 -80 -6 -35 -14 -72 -19 -83
-6 -17 -4 -17 21 5 27 24 249 350 238 350 -3 0 -27 -24 -55 -52 l-50 -53 6 34
c3 18 14 43 23 56 88 113 104 136 101 145 -7 23 -95 -71 -148 -159 -30 -50
-56 -84 -58 -76 -6 26 44 120 116 222 75 106 96 142 89 150 -10 10 -39 -14
-62 -53 -18 -29 -24 -34 -25 -19 0 28 28 71 95 144 55 58 59 66 59 112 1 49 2
51 76 116 41 37 131 121 200 188 353 341 530 484 657 531 46 17 114 12 148
-10z m-1186 -928 c-21 -40 -134 -177 -137 -168 -7 18 27 70 85 134 60 66 74
75 52 34z m-589 -1836 c0 -18 -63 -151 -72 -152 -19 -1 -5 76 23 132 23 45 33
58 40 47 5 -8 9 -20 9 -27z"/>
<path d="M5753 8139 c-36 -11 -68 -51 -59 -74 4 -12 10 -13 33 -3 16 6 78 10
141 10 61 -1 112 3 112 7 0 13 -44 49 -73 60 -34 13 -109 13 -154 0z"/>
<path d="M5431 7547 c-14 -83 -14 -101 3 -142 32 -75 58 -29 60 101 1 48 -3
67 -18 83 -11 12 -22 21 -27 21 -4 0 -12 -28 -18 -63z"/>
<path d="M5213 7334 c-27 -14 -63 -67 -52 -79 2 -2 42 5 88 16 79 18 141 45
141 60 0 24 -131 26 -177 3z"/>
<path d="M5207 7010 c-36 -11 -57 -28 -57 -48 0 -24 89 -10 112 18 30 37 8 49
-55 30z"/>
<path d="M5136 6816 c-21 -8 -46 -22 -55 -32 -15 -15 -13 -16 23 -11 23 4 52
1 72 -8 29 -12 37 -11 71 6 32 17 50 19 113 14 58 -5 79 -3 95 8 11 9 17 18
13 22 -4 4 -71 9 -150 11 -109 4 -152 1 -182 -10z"/>
<path d="M5300 6629 c-53 -22 -87 -29 -119 -27 -28 2 -46 -1 -48 -9 -7 -19 41
-33 111 -33 70 0 158 37 184 78 14 21 13 22 -19 22 -19 0 -68 -14 -109 -31z"/>
<path d="M6454 5609 c-3 -6 -2 -15 3 -20 4 -4 85 -25 178 -44 166 -36 293 -47
343 -31 59 19 -16 54 -118 56 -39 0 -81 8 -105 18 -30 14 -46 16 -66 9 -19 -8
-50 -6 -110 6 -99 20 -116 21 -125 6z"/>
<path d="M6101 5508 c-18 -58 -85 -190 -133 -260 -40 -60 -38 -69 11 -44 74
39 152 177 153 271 1 73 -15 89 -31 33z"/>
<path d="M5598 5079 c-10 -5 -18 -21 -18 -34 0 -22 4 -25 38 -25 32 0 41 5 51
27 10 21 9 28 -1 34 -18 12 -49 11 -70 -2z"/>
<path d="M7007 4973 c-15 -14 -5 -51 27 -98 63 -95 216 -394 216 -424 0 -62
30 -83 51 -37 15 32 6 77 -32 156 -18 36 -53 121 -80 189 -53 136 -90 198
-127 212 -28 11 -46 11 -55 2z"/>
<path d="M7145 4156 c-33 -33 -62 -48 -148 -79 -59 -21 -131 -52 -160 -69 -76
-44 -94 -51 -175 -58 -57 -5 -78 -12 -95 -29 l-22 -23 100 5 c55 3 127 13 160
21 72 20 187 73 252 117 51 34 163 138 163 151 0 20 -39 1 -75 -36z"/>
<path d="M2866 6522 c-62 -21 -94 -60 -80 -98 15 -45 76 -86 133 -92 46 -4 53
-2 81 26 24 25 30 39 30 75 0 60 -7 75 -41 92 -36 19 -62 18 -123 -3z"/>
<path d="M1643 5871 c-46 -21 -69 -51 -79 -99 -12 -62 49 -102 155 -102 68 0
71 1 78 28 11 38 7 162 -5 174 -21 21 -104 20 -149 -1z"/>
<path d="M5876 6878 c-23 -32 -20 -63 9 -95 l24 -28 1 73 c0 75 -8 87 -34 50z"/>
<path d="M11058 7043 c-113 -234 -167 -353 -284 -629 -130 -310 -122 -286 -79
-244 48 46 93 128 149 275 59 152 75 187 208 480 61 131 111 250 111 264 4 60
-26 19 -105 -146z"/>
<path d="M10603 6018 c-16 -21 -330 -678 -434 -907 -26 -56 -27 -62 -8 -46 57
52 146 215 304 559 91 198 120 266 140 331 7 22 16 48 20 58 8 20 -8 23 -22 5z"/>
<path d="M2090 6601 c-25 -7 -60 -55 -49 -66 4 -3 18 0 33 6 22 10 32 9 61 -7
31 -17 37 -17 45 -4 11 17 13 42 4 64 -6 17 -48 20 -94 7z"/>
<path d="M12451 8228 c0 -34 7 -85 14 -113 13 -49 13 -48 11 59 -1 78 -5 111
-13 114 -10 3 -13 -13 -12 -60z"/>
<path d="M11743 8244 c-14 -35 -6 -434 9 -434 28 0 34 72 26 289 -6 138 -18
187 -35 145z"/>
<path d="M11837 8235 c-13 -55 -26 -179 -27 -255 0 -63 2 -72 14 -60 34 37 44
137 27 285 -6 52 -8 56 -14 30z"/>
<path d="M12423 6660 c-28 -12 -44 -41 -59 -116 -16 -75 -104 -262 -246 -524
-58 -107 -111 -215 -118 -240 -19 -74 -59 -177 -130 -330 -37 -80 -77 -171
-88 -202 l-22 -58 23 0 c40 0 64 26 77 82 21 96 17 90 50 67 15 -12 33 -20 39
-18 7 3 40 69 73 149 34 80 147 315 250 523 103 208 188 380 188 383 0 11 -40
2 -59 -13 -11 -10 -55 -94 -96 -188 -114 -256 -201 -425 -239 -470 l-35 -40
33 90 c40 106 92 222 215 479 88 182 181 400 181 424 0 14 -7 14 -37 2z"/>
<path d="M12437 6196 c-25 -20 -62 -92 -131 -261 -45 -111 -79 -176 -129 -248
-38 -53 -75 -113 -83 -132 -16 -38 -19 -105 -5 -105 12 0 73 83 100 137 12 24
42 91 67 149 67 158 150 279 114 167 -7 -21 -32 -76 -55 -123 -50 -101 -60
-137 -45 -175 l11 -28 25 24 c52 48 89 129 124 269 19 74 19 75 0 95 -23 24
-19 49 24 132 29 59 31 72 14 96 -11 14 -16 14 -31 3z"/>
<path d="M8273 3876 c-29 -14 -95 -65 -157 -122 -59 -54 -115 -104 -126 -111
-11 -8 -20 -23 -20 -35 0 -11 -18 -39 -41 -61 -54 -54 -69 -77 -69 -104 0 -48
50 -11 80 59 19 45 50 78 194 211 94 87 178 162 186 167 33 20 0 17 -47 -4z"/>
<path d="M8290 3763 c-138 -110 -337 -299 -327 -310 3 -2 27 5 54 17 35 15 86
59 193 169 112 114 157 154 198 172 40 19 52 29 52 46 0 13 -6 23 -12 22 -7 0
-78 -53 -158 -116z"/>
<path d="M8004 3759 c-10 -12 -43 -37 -71 -56 -29 -18 -53 -38 -53 -44 0 -5
-49 -58 -108 -117 -60 -59 -114 -122 -121 -139 -13 -33 -10 -63 8 -63 11 0 75
75 185 215 41 52 95 107 133 134 45 33 63 52 63 68 0 29 -11 29 -36 2z"/>
<path d="M8412 3756 c-6 -14 -46 -54 -89 -89 -43 -36 -86 -79 -96 -96 l-18
-31 45 0 c24 0 51 -3 60 -6 11 -4 16 -1 16 10 0 31 32 80 96 149 35 37 64 72
64 77 0 6 -15 10 -33 10 -26 0 -36 -6 -45 -24z"/>
<path d="M7477 3259 c-49 -26 -112 -91 -126 -129 -13 -38 -5 -38 47 1 41 30
43 30 67 15 25 -17 25 -17 45 29 20 46 27 105 13 105 -5 -1 -25 -10 -46 -21z"/>
<path d="M7259 3027 c-9 -7 -28 -31 -42 -54 -15 -23 -40 -52 -57 -64 -16 -13
-30 -30 -30 -39 0 -10 -12 -35 -27 -56 -14 -21 -37 -54 -50 -73 -23 -33 -32
-91 -14 -91 19 0 88 90 151 196 35 60 79 125 97 145 18 20 30 39 26 43 -10 10
-36 7 -54 -7z"/>
<path d="M6830 2191 c0 -21 -39 -83 -81 -127 -16 -16 -42 -64 -58 -105 -16
-42 -75 -167 -131 -279 -97 -193 -170 -380 -170 -431 l0 -24 20 25 c10 14 26
51 35 82 9 32 67 161 129 288 63 127 122 256 131 288 11 33 34 75 55 100 44
50 114 178 105 192 -11 17 -35 11 -35 -9z"/>
<path d="M6743 1822 c-78 -130 -161 -277 -186 -327 -53 -108 -121 -285 -112
-294 12 -11 52 50 80 123 67 172 240 490 348 639 46 64 55 97 25 97 -7 0 -77
-107 -155 -238z"/>
<path d="M6878 1852 c-14 -15 -38 -49 -54 -77 -16 -27 -72 -121 -125 -208 -54
-87 -110 -190 -125 -230 -15 -40 -41 -91 -57 -113 -25 -37 -27 -45 -17 -65 12
-21 17 -14 75 107 64 135 105 210 249 458 47 82 85 151 83 152 -2 2 -15 -9
-29 -24z"/>
<path d="M6913 1743 c-28 -43 -86 -139 -129 -213 -43 -74 -101 -173 -129 -220
-33 -54 -52 -97 -53 -118 0 -18 -10 -48 -22 -68 -23 -37 -21 -64 5 -64 27 0
110 92 159 176 26 43 72 131 103 194 68 142 125 242 169 297 37 45 41 55 20
47 -14 -5 -46 20 -46 37 0 28 -32 0 -77 -68z m18 -60 c-10 -27 -50 -103 -88
-170 -37 -67 -92 -165 -121 -220 -37 -69 -51 -88 -46 -64 11 60 58 163 119
261 32 52 79 130 103 173 25 42 47 76 49 74 2 -3 -5 -27 -16 -54z"/>
<path d="M7075 1672 c-14 -2 -32 -28 -57 -80 -21 -42 -78 -133 -128 -202 -133
-184 -193 -317 -189 -419 1 -23 3 -21 17 14 36 92 166 332 271 503 62 101 112
184 110 185 -2 2 -13 1 -24 -1z"/>
<path d="M7088 1556 c-10 -7 -18 -17 -18 -21 0 -4 -20 -37 -44 -74 -24 -36
-65 -108 -90 -159 -26 -52 -76 -136 -111 -187 -68 -99 -84 -146 -68 -198 l10
-32 24 55 c81 192 216 433 317 565 22 29 28 43 20 52 -13 16 -18 16 -40 -1z"/>
<path d="M7028 1247 c-150 -243 -230 -398 -214 -415 10 -10 102 131 162 250
70 137 118 214 168 266 24 26 28 36 20 49 -6 9 -15 18 -20 20 -5 1 -57 -75
-116 -170z"/>
<path d="M7120 1223 c-17 -14 -51 -65 -75 -114 -24 -49 -58 -109 -75 -134 -38
-56 -84 -154 -76 -162 11 -11 53 37 71 80 52 123 67 147 123 209 34 38 71 86
82 108 20 39 20 40 1 40 -11 0 -34 -12 -51 -27z"/>
<path d="M7081 951 c-88 -156 -122 -264 -61 -192 23 27 150 268 150 285 0 2
-6 6 -14 9 -10 4 -33 -27 -75 -102z"/>
<path d="M7166 915 c-4 -14 -20 -47 -35 -73 -35 -56 -46 -95 -34 -117 8 -14
15 -9 41 32 35 55 82 152 82 171 0 6 -11 12 -24 12 -17 0 -26 -7 -30 -25z"/>
</g>
</svg>
